<svg width="431" height="431" viewBox="0 0 431 431" fill="none" xmlns="http://www.w3.org/2000/svg">
<g filter="url(#filter0_d)">
<path d="M427 211.5C427 328.307 332.307 423 215.5 423C98.6925 423 4 328.307 4 211.5C4 211.55 215.5 0.023959 215.5 0C332.307 0 427 94.6925 427 211.5Z" fill="#0052B4"/>
<path d="M215.501 0C215.489 0 215.476 0.000845703 215.464 0.000845703L215.501 0Z" fill="#F0F0F0"/>
<path d="M214.934 211.5H215.5C215.5 211.308 215.5 211.125 215.5 210.934C215.312 211.123 215.123 211.312 214.934 211.5Z" fill="#F0F0F0"/>
<path d="M215.5 110.349C215.5 73.1337 215.5 48.7476 215.5 0.000976562H215.464C98.6727 0.0199785 4 94.7034 4 211.5H114.348V149.362L176.486 211.5H214.935C215.124 211.312 215.312 211.123 215.501 210.934C215.501 196.685 215.501 183.971 215.501 172.488L153.362 110.349H215.5Z" fill="#F0F0F0"/>
<path d="M111.002 27.5867C77.9225 46.4226 50.4226 73.9225 31.5867 107.002V211.5H86.7609V82.7617V82.7609H215.5C215.5 65.3593 215.5 48.7813 215.5 27.5867H111.002V27.5867Z" fill="#D80027"/>
<path d="M215.5 185.491L140.357 110.349H114.348C114.348 110.348 114.348 110.349 114.348 110.349L215.499 211.5H215.5C215.5 211.5 215.5 193.568 215.5 185.491Z" fill="#D80027"/>
<path d="M131.557 248.283L143.165 272.554L169.377 266.496L157.638 290.704L178.717 307.42L152.472 313.336L152.546 340.239L131.557 323.408L110.569 340.239L110.642 313.336L84.3965 307.42L105.476 290.704L93.7364 266.496L119.95 272.554L131.557 248.283Z" fill="#F0F0F0"/>
<path d="M320.659 294.261L326.462 306.397L339.569 303.367L333.699 315.471L344.239 323.83L331.116 326.787L331.153 340.239L320.659 331.823L310.165 340.239L310.201 326.787L297.079 323.83L307.618 315.471L301.749 303.367L314.855 306.397L320.659 294.261Z" fill="#F0F0F0"/>
<path d="M266.667 165.522L272.47 177.658L285.577 174.628L279.708 186.732L290.247 195.091L277.125 198.048L277.161 211.5L266.667 203.084L256.173 211.5L256.209 198.048L243.087 195.091L253.626 186.732L247.757 174.628L260.864 177.658L266.667 165.522Z" fill="#F0F0F0"/>
<path d="M320.659 91.9563L326.462 104.093L339.569 101.063L333.7 113.167L344.238 121.525L331.116 124.484L331.153 137.935L320.659 129.519L310.165 137.935L310.201 124.484L297.079 121.525L307.617 113.167L301.749 101.063L314.855 104.093L320.659 91.9563Z" fill="#F0F0F0"/>
<path d="M367.82 147.13L373.623 159.267L386.729 156.237L380.86 168.341L391.399 176.699L378.277 179.658L378.313 193.109L367.82 184.693L357.326 193.109L357.361 179.658L344.239 176.699L354.779 168.341L348.909 156.237L362.015 159.267L367.82 147.13Z" fill="#F0F0F0"/>
<path d="M334.097 211.5L338.662 225.55H353.435L341.483 234.234L346.049 248.283L334.097 239.6L322.146 248.283L326.71 234.234L314.759 225.55H329.532L334.097 211.5Z" fill="#F0F0F0"/>
</g>
<defs>
<filter id="filter0_d" x="0" y="0" width="431" height="431" filterUnits="userSpaceOnUse" color-interpolation-filters="sRGB">
<feFlood flood-opacity="0" result="BackgroundImageFix"/>
<feColorMatrix in="SourceAlpha" type="matrix" values="0 0 0 0 0 0 0 0 0 0 0 0 0 0 0 0 0 0 127 0"/>
<feOffset dy="4"/>
<feGaussianBlur stdDeviation="2"/>
<feColorMatrix type="matrix" values="0 0 0 0 0 0 0 0 0 0 0 0 0 0 0 0 0 0 0.25 0"/>
<feBlend mode="normal" in2="BackgroundImageFix" result="effect1_dropShadow"/>
<feBlend mode="normal" in="SourceGraphic" in2="effect1_dropShadow" result="shape"/>
</filter>
</defs>
</svg>
