<svg width="513" height="513" viewBox="0 0 513 513" fill="none" xmlns="http://www.w3.org/2000/svg">
<g clip-path="url(#clip0)">
<path d="M256.011 106.673C124.576 106.673 7.45576 243.292 2.52776 249.116C-0.843238 253.084 -0.843238 258.908 2.52776 262.897C5.47176 266.374 48.5228 316.358 110.603 356.166L177.462 289.307C173.11 279.067 170.678 267.824 170.678 256.006C170.678 208.945 208.95 170.673 256.011 170.673C267.83 170.673 279.072 173.105 289.312 177.457L344.288 122.481C317.493 112.902 288.075 106.673 256.011 106.673Z" fill="black"/>
<path d="M510.112 249.926C507.381 245.979 462.091 182.235 385.952 141.147L444.896 82.203C449.056 78.043 449.056 71.28 444.896 67.12C440.736 62.96 433.973 62.96 429.813 67.12L67.1469 429.788C62.9869 433.948 62.9869 440.711 67.1469 444.871C69.2159 446.962 71.9469 448.007 74.6779 448.007C77.4089 448.007 80.1389 446.962 82.2299 444.892L149.11 378.012C182.07 394.097 218.422 405.34 256.011 405.34C387.446 405.34 504.566 268.721 509.494 262.897C512.587 259.206 512.864 253.894 510.112 249.926ZM256.011 341.34C236.32 341.34 218.422 334.364 203.958 323.143L323.147 203.954C334.368 218.418 341.344 236.317 341.344 256.007C341.344 303.068 303.072 341.34 256.011 341.34Z" fill="black"/>
</g>
<defs>
<clipPath id="clip0">
<rect width="512.008" height="512.008" fill="white"/>
</clipPath>
</defs>
</svg>
