
<svg height="512" viewBox="0 0 58 58" width="512" xmlns="http://www.w3.org/2000/svg"><g id="Page-1" fill="none" fill-rule="evenodd"><g id="080---Headset" fill-rule="nonzero"><path id="Shape" d="m22 56h-7c-3.8639376-.0049584-6.99504164-3.1360624-7-7v-1c0-.5522847.44771525-1 1-1s1 .4477153 1 1v1c.0033061 2.7600532 2.2399468 4.9966939 5 5h7c.5522847 0 1 .4477153 1 1s-.4477153 1-1 1z" fill="#2c3e50"/><path id="Shape" d="m36 55c0 1.6568542-1.3431458 3-3 3h-6v-6h6c1.6568542 0 3 1.3431458 3 3z" fill="#2c3e50"/><path id="Shape" d="m27 52v6h-2c-1.6568542 0-3-1.3431458-3-3s1.3431458-3 3-3z" fill="#a5a5a4"/><path id="Shape" d="m7 32c-.55228475 0-1-.4477153-1-1v-6c-.00297411-4.3489518 1.23028153-8.6091634 3.556-12.284.18332625-.317933.5260773-.5099.8929481-.5001199.3668709.00978.6989075.2197357.8650344.5469844s.1396485.7192034-.0689825 1.0211355c-2.12223478 3.3558181-3.24757412 7.2454347-3.245 11.216v6c0 .5522847-.44771525 1-1 1z" fill="#2c3e50"/><path id="Shape" d="m51 32c-.5522847 0-1-.4477153-1-1v-6c.0025741-3.9705653-1.1227652-7.8601819-3.245-11.216-.208631-.3019321-.2351094-.6938868-.0689825-1.0211355s.4981635-.5372044.8650344-.5469844c.3668708-.0097801.7096219.1821869.8929481.5001199 2.3257185 3.6748366 3.5589741 7.9350482 3.556 12.284v6c0 .2652165-.1053568.5195704-.2928932.7071068s-.4418903.2928932-.7071068.2928932z" fill="#2c3e50"/><path id="Shape" d="m51 46c3.866 0 7-3.582 7-8s-3.134-8-7-8z" fill="#c03a2b"/><rect id="Rectangle-path" fill="#5d4c72" height="20" rx="2" transform="matrix(-1 0 0 -1 92 76)" width="10" x="41" y="28"/><g fill="#3d324c"><path id="Shape" d="m45 32c.5522847 0 1-.4477153 1-1v-3c0-.5522847-.4477153-1-1-1s-1 .4477153-1 1v3c0 .5522847.4477153 1 1 1z"/><path id="Shape" d="m45 38c.5522847 0 1-.4477153 1-1v-2c0-.5522847-.4477153-1-1-1s-1 .4477153-1 1v2c0 .5522847.4477153 1 1 1z"/><path id="Shape" d="m45 49c.5522847 0 1-.4477153 1-1v-7c0-.5522847-.4477153-1-1-1s-1 .4477153-1 1v7c0 .5522847.4477153 1 1 1z"/></g><path id="Shape" d="m7 46c-3.866 0-7-3.582-7-8s3.134-8 7-8z" fill="#c03a2b"/><rect id="Rectangle-path" fill="#5d4c72" height="20" rx="2" width="10" x="7" y="28"/><path id="Shape" d="m13 32c-.5522847 0-1-.4477153-1-1v-3c0-.5522847.4477153-1 1-1s1 .4477153 1 1v3c0 .5522847-.4477153 1-1 1z" fill="#3d324c"/><path id="Shape" d="m13 38c-.5522847 0-1-.4477153-1-1v-2c0-.5522847.4477153-1 1-1s1 .4477153 1 1v2c0 .5522847-.4477153 1-1 1z" fill="#3d324c"/><path id="Shape" d="m13 49c-.5522847 0-1-.4477153-1-1v-7c0-.5522847.4477153-1 1-1s1 .4477153 1 1v7c0 .5522847-.4477153 1-1 1z" fill="#3d324c"/><path id="Shape" d="m45.825 13.823c-.8865312.0030281-1.7288199-.3869882-2.3-1.065-3.6101014-4.28464138-8.9272343-6.757488-14.53-6.757488s-10.9198986 2.47284662-14.53 6.757488c-.6911303.81921-1.7668043 1.2074776-2.8218261 1.0185463-1.0550219-.1889314-1.92910852-.9263587-2.29300004-1.9345-.36389153-1.0081414-.16230414-2.1338363.52882614-2.9530463 4.7501341-5.63596767 11.7452534-8.8885586 19.116-8.8885586s14.3658659 3.25259093 19.116 8.8885586c.7521934.89197124.918979 2.1391573.4275912 3.1974321s-1.5517979 1.7356381-2.7185912 1.7365679z" fill="#c03a2b"/></g></g></svg>